HIERARCHY
ROOT hip
{
	OFFSET 0.000000 0.000000 0.000000 
	CHANNELS 6 Xposition Yposition Zposition Xrotation Zrotation Yrotation
	JOINT abdomen
	{
		OFFSET 0.000000 3.402643 0.000000 
		CHANNELS 3 Xrotation Zrotation Yrotation
		JOINT chest
		{
			OFFSET 0.000000 8.438565 -0.680529 
			CHANNELS 3 Xrotation Zrotation Yrotation
			JOINT neck
			{
				OFFSET 0.000000 10.207942 -0.272212 
				CHANNELS 3 Xrotation Zrotation Yrotation
				JOINT head
				{
					OFFSET 0.000000 3.130431 0.000000 
					CHANNELS 3 Xrotation Zrotation Yrotation
					End Site
					{
						OFFSET 0.000000 3.130435 0.000000 
					}
				}
			}
			JOINT lCollar
			{
				OFFSET 3.470700 6.669187 -0.816635 
				CHANNELS 3 Yrotation Zrotation Xrotation
				JOINT lShldr
				{
					OFFSET 3.198488 0.000000 0.000000 
					CHANNELS 3 Zrotation Yrotation Xrotation
					JOINT lForeArm
					{
						OFFSET 10.139888 0.000000 0.000000 
						CHANNELS 3 Yrotation Zrotation Xrotation
						JOINT lHand
						{
							OFFSET 8.370511 0.000000 0.000000 
							CHANNELS 3 Zrotation Yrotation Xrotation
							End Site
							{
								OFFSET 4.083176 0.000000 0.000000 
							}
						}
					}
				}
			}
			JOINT rCollar
			{
				OFFSET -3.470700 6.669187 -0.816635 
				CHANNELS 3 Yrotation Zrotation Xrotation
				JOINT rShldr
				{
					OFFSET -3.198488 0.000000 0.000000 
					CHANNELS 3 Zrotation Yrotation Xrotation
					JOINT rForeArm
					{
						OFFSET -10.139888 0.000000 0.000000 
						CHANNELS 3 Yrotation Zrotation Xrotation
						JOINT rHand
						{
							OFFSET -8.370511 0.000000 0.000000 
							CHANNELS 3 Zrotation Yrotation Xrotation
							End Site
							{
								OFFSET -4.083176 0.000000 0.000000 
							}
						}
					}
				}
			}
		}
	}
	JOINT lThigh
	{
		OFFSET 5.308129 -1.633274 1.361059 
		CHANNELS 3 Xrotation Zrotation Yrotation
		JOINT lShin
		{
			OFFSET -2.041588 -20.007561 0.000000 
			CHANNELS 3 Xrotation Zrotation Yrotation
			JOINT lFoot
			{
				OFFSET 0.000000 -19.190928 -1.224953 
				CHANNELS 3 Xrotation Yrotation Zrotation
				End Site
				{
					OFFSET 0.000000 -2.449906 4.627600 
				}
			}
		}
	}
	JOINT rThigh
	{
		OFFSET -5.308129 -1.633274 1.361059 
		CHANNELS 3 Xrotation Zrotation Yrotation
		JOINT rShin
		{
			OFFSET 2.041588 -20.007561 0.000000 
			CHANNELS 3 Xrotation Zrotation Yrotation
			JOINT rFoot
			{
				OFFSET 0.000000 -19.190928 -1.224953 
				CHANNELS 3 Xrotation Yrotation Zrotation
				End Site
				{
					OFFSET 0.000000 -2.449906 4.627600 
				}
			}
		}
	}
}
MOTION
Frames: 13
Frame Time: 0.033333
5.023699 48.657696 -177.656281 0.000000 0.000000 170.859375 0.000000 0.000000 0.000000 0.000000 0.000000 0.000000 -5.458984 -2.441406 -3.809010 5.585938 2.041015 -0.224609 -2.822266 -0.097656 -0.019515 -81.035156 20.166016 -3.688038 -7.568359 -5.927735 5.713899 3.398438 -0.849609 -6.162237 2.792969 0.068359 -0.019531 79.912109 19.160158 4.619141 30.214848 2.792969 4.481946 -2.050781 1.523438 -5.439454 -26.493248 6.279324 7.268695 14.781904 -3.751712 -1.156955 -2.322198 4.631313 1.117946 0.996156 -4.518770 6.974062 36.002380 3.538802 3.185126 -7.817577 -4.450133 -1.863232 
5.480400 47.688000 -180.396484 0.000000 0.000000 169.980469 0.000000 0.000000 0.000000 0.000000 0.000000 0.000000 -5.429688 -2.539063 -4.678167 5.585938 2.041015 -0.224609 -2.822266 -0.097656 -0.019515 -81.347656 22.812500 -4.097774 -5.800781 -5.937500 5.801791 3.398438 -0.849609 -6.162237 2.792969 0.068359 -0.019531 79.902344 18.300781 4.993301 35.136719 2.714844 4.423366 -2.050781 1.523438 -5.439454 -26.366856 6.465111 8.117384 7.655712 -3.877985 -0.655672 0.124272 4.718054 0.824012 0.819650 -4.623507 7.847575 42.017803 3.362846 3.765208 -8.154572 -4.625581 -1.778176 
5.480400 48.288628 -181.766586 0.000000 -0.878906 170.859375 0.000000 0.000000 0.000000 0.166016 -0.878906 -0.019531 -5.458984 -2.441406 -3.809010 5.585938 2.041015 -0.224609 -2.822266 -0.097656 -0.019515 -80.859375 19.443359 -3.551435 -5.800781 -5.937500 5.801791 3.398438 -0.849609 -6.162237 2.792969 0.068359 -0.019531 79.765625 16.874998 4.504788 33.554688 2.734375 4.433594 -2.050781 1.523438 -5.439454 -26.719131 5.059057 7.825357 11.254678 -3.885632 -0.760201 -0.266998 4.817996 1.057099 3.134387 -5.983931 6.886855 40.249443 3.528628 3.504503 -1.461772 -4.858267 -0.969992 
5.480400 48.751778 -183.136673 179.990234 -178.437500 -8.105736 0.000000 0.000000 0.000000 0.351563 -1.757811 -0.029596 -5.498047 -2.353516 -2.929688 5.585938 2.041015 -0.224609 -2.822266 -0.097656 -0.019515 -80.527344 16.083986 -3.044168 -5.800781 -5.937500 5.801791 3.398438 -0.849609 -6.162237 2.792969 0.068359 -0.019531 79.433594 15.458985 3.828124 32.158203 2.763672 4.452654 -2.050781 1.523438 -5.439454 -27.009689 3.798268 7.188224 14.929295 -3.867130 -1.034335 -0.461823 4.681592 1.411048 4.997334 -6.781298 5.613287 39.190102 3.522725 3.450773 5.013401 -4.807537 -0.313148 
5.480400 49.128067 -184.963455 -179.833984 -177.539063 -7.236329 0.000000 0.000000 0.000000 0.527344 -2.460934 -0.049247 -5.517578 -2.304688 -2.236721 5.585938 2.041015 -0.224609 -2.822266 -0.097656 -0.019515 -80.205078 12.548829 -2.695313 -5.800781 -5.937500 5.801791 3.398438 -0.849609 -6.162237 2.792969 0.068359 -0.019531 79.296875 14.042969 3.381277 30.556637 2.792969 4.492188 -2.050781 1.523438 -5.439454 -27.350719 2.753544 6.841435 18.725136 -3.889767 -1.275769 -0.766976 4.741925 1.657547 6.957855 -7.873537 4.630651 37.763428 3.714386 3.383850 11.849399 -4.739936 0.190362 
5.480400 49.308987 -186.333572 -179.833984 -176.660156 -6.181641 0.000000 0.000000 0.000000 0.703125 -3.349610 -0.068359 -5.566407 -2.207031 -1.347656 5.585938 2.041015 -0.224609 -2.822266 -0.097656 -0.019515 -80.039063 9.003906 -2.146908 -5.800781 -5.937500 5.801791 3.398438 -0.849609 -6.162237 2.792969 0.068359 -0.019531 78.964844 12.617188 2.705078 28.984375 2.812500 4.501474 -2.050781 1.523438 -5.439454 -27.704302 1.367516 6.398898 22.319674 -3.792160 -1.533450 -0.871917 4.686271 1.787676 9.031180 -9.079048 3.402267 36.343128 3.694337 3.239168 18.353827 -4.594044 0.622244 
5.480400 49.388588 -187.703735 -179.833984 -175.957031 -5.302735 0.000000 0.000000 0.000000 0.869141 -4.052734 0.087891 -5.595703 -2.128906 -0.488281 5.585938 2.041015 -0.224609 -2.822266 -0.097656 -0.019515 -79.687500 5.634765 -1.767578 -5.800781 -5.937500 5.801791 3.398438 -0.849609 -6.162237 2.792969 0.068359 -0.019531 78.818359 11.025392 2.218666 27.578127 2.822266 4.530769 -2.050781 1.523438 -5.439454 -28.150980 0.156316 5.950390 26.418188 -3.743460 -1.825811 -1.481356 4.997021 2.106555 11.206992 -9.848942 2.013574 34.939331 3.538450 3.474035 25.063400 -4.423403 1.768036 
5.480400 49.337933 -189.530518 -179.833984 -175.097656 -4.443359 0.000000 0.000000 0.000000 1.054688 -4.921859 0.057756 -5.615234 -2.041015 0.390277 5.585938 2.041015 -0.224609 -2.822266 -0.097656 -0.019515 -79.492188 2.109375 -1.396123 -5.800781 -5.937500 5.801791 3.398438 -0.849609 -6.162237 2.792969 0.068359 -0.019531 78.662109 9.609376 1.542969 25.996094 2.851563 4.550296 -2.050781 1.523438 -5.439454 -28.349468 -1.093724 5.663387 29.791605 -3.666822 -1.912034 -1.511859 4.605603 2.163303 13.198289 -10.805376 0.908138 33.664063 3.864308 3.121912 31.851908 -4.216178 2.150186 
5.480400 50.271439 -190.900574 -179.833984 -175.791016 -3.378906 0.000000 0.000000 0.000000 0.869141 -4.228463 0.087890 -5.615234 -2.041015 0.390277 5.585938 2.041015 -0.224609 -2.822266 -0.097656 -0.019515 -79.648438 -1.250000 -1.035369 -5.800781 -5.937500 5.801791 3.398438 -0.849609 -6.162237 2.792969 0.068359 -0.019531 78.505859 7.666016 1.231773 24.589844 2.880860 4.579587 -2.050781 1.523438 -5.439454 -24.024204 -0.918546 4.252360 26.193501 -3.945502 -1.852264 -2.510076 4.914167 2.326082 7.476713 -10.003761 0.101136 36.340816 3.527839 3.372314 25.250355 -4.350760 1.601313 
5.480400 50.777992 -192.727402 -179.833984 -176.484375 -2.490234 0.000000 0.000000 0.000000 0.703125 -3.515625 -0.068958 -5.615234 -2.041015 0.390277 5.585938 2.041015 -0.224609 -2.822266 -0.097656 -0.019515 -79.619141 -4.628906 -0.498835 -5.800781 -5.937500 5.801791 3.398438 -0.849609 -6.162237 2.792969 0.068359 -0.019531 78.525391 5.703125 0.557613 22.998047 2.900391 4.618646 -2.050781 1.523438 -5.439454 -19.520657 -0.907806 3.001527 22.522232 -3.557557 -1.846693 -3.116244 4.810172 2.314255 1.532477 -9.193650 -0.295506 38.832672 3.517852 3.557396 18.533768 -4.746293 1.325558 
5.480400 50.705627 -194.554184 179.990234 -177.187500 -1.426260 0.000000 0.000000 0.000000 0.527344 -2.812496 -0.049307 -5.615234 -2.041015 0.390277 5.585938 2.041015 -0.224609 -2.822266 -0.097656 -0.019515 -79.765625 -8.154297 -0.146484 -5.800781 -5.937500 5.801791 3.398438 -0.849609 -6.162237 2.792969 0.068359 -0.019531 78.554688 3.593750 0.088503 21.591797 2.919922 4.638135 -2.050781 1.523438 -5.439454 -15.270920 -0.400336 1.112824 18.998835 -4.250087 -1.388259 -3.767909 4.871483 2.171185 -4.070804 -8.775549 -0.570828 40.937328 3.466611 3.331895 11.822610 -4.583608 0.964468 
5.480400 50.228016 -195.924286 179.990234 -177.890625 -0.547234 0.000000 0.000000 0.000000 0.351563 -2.109373 -0.029656 -5.615234 -2.041015 0.390277 5.585938 2.041015 -0.224609 -2.822266 -0.097656 -0.019515 -79.726563 -11.689452 0.214844 -5.800781 -5.937500 5.801791 3.398438 -0.849609 -6.162237 2.792969 0.068359 -0.019531 78.564453 1.826172 -0.409846 20.019531 2.929688 4.667969 -2.050781 1.523438 -5.439454 -10.550000 -0.244751 0.587328 14.958130 -3.610217 -1.718462 -4.499112 4.711402 2.140135 -10.191507 -8.258590 -1.081670 43.588993 3.310213 3.293852 5.281126 -4.493965 0.581000 
5.480400 49.258320 -197.751068 179.990234 -178.613281 0.341561 0.000000 0.000000 0.000000 0.166016 -1.425781 -0.019531 -5.615234 -2.041015 0.390277 5.585938 2.041015 -0.224609 -2.822266 -0.097656 -0.019515 -80.000000 -15.068358 0.749416 -5.800781 -5.937500 5.801791 3.398438 -0.849609 -6.162237 2.792969 0.068359 -0.019531 78.398438 -0.302734 -0.898437 18.613281 2.949219 4.686998 -2.050781 1.523438 -5.439454 -6.264429 0.311829 -1.122917 11.834224 -3.825516 -1.001416 -5.001647 4.506805 2.066523 -15.823971 -7.731386 -1.985448 46.235886 3.124743 3.597182 -1.560448 -4.604847 0.081294 
